<svg width="744" height="1080" viewBox="0 0 744 1080" fill="none" xmlns="http://www.w3.org/2000/svg">
<rect width="744" height="1080" fill="#0B0F07"/>
<line x1="433.5" y1="0.957031" x2="433.5" y2="290" stroke="#3D5122"/>
<line x1="443.5" y1="0.957031" x2="443.5" y2="229.149" stroke="#3D5122"/>
<line x1="453.5" y1="0.957031" x2="453.5" y2="255.315" stroke="#3D5122"/>
<line x1="463.5" y1="0.957031" x2="463.5" y2="278.438" stroke="#3D5122"/>
<line x1="473.5" y1="0.957031" x2="473.5" y2="116.574" stroke="#3D5122"/>
<line x1="483.5" x2="483.5" y2="283.262" stroke="#3D5122"/>
<line x1="493.5" y1="0.957031" x2="493.5" y2="232.191" stroke="#3D5122"/>
<line x1="503.5" y1="0.957031" x2="503.5" y2="249.534" stroke="#3D5122"/>
<line x1="513.5" y1="0.957031" x2="513.5" y2="209.068" stroke="#3D5122"/>
<line x1="523.5" y1="0.957031" x2="523.5" y2="220.63" stroke="#3D5122"/>
<line x1="533.5" y1="0.957031" x2="533.5" y2="197.506" stroke="#3D5122"/>
<line x1="543.5" y1="0.957031" x2="543.5" y2="272.657" stroke="#3D5122"/>
<line x1="553.5" y1="0.957031" x2="553.5" y2="232.191" stroke="#3D5122"/>
<line x1="563.5" y1="0.957031" x2="563.5" y2="209.068" stroke="#3D5122"/>
<line x1="573.5" y1="0.957031" x2="573.5" y2="214.849" stroke="#3D5122"/>
<line x1="422.5" y1="168.817" x2="422.5" y2="0.000244141" stroke="#3D5122"/>
<line x1="273.5" y1="0.957031" x2="273.5" y2="290" stroke="#3D5122"/>
<line x1="283.5" y1="0.957031" x2="283.5" y2="229.149" stroke="#3D5122"/>
<line x1="293.5" y1="0.957031" x2="293.5" y2="255.315" stroke="#3D5122"/>
<line x1="303.5" y1="0.957031" x2="303.5" y2="278.438" stroke="#3D5122"/>
<line x1="313.5" y1="0.957031" x2="313.5" y2="116.574" stroke="#3D5122"/>
<line x1="323.5" x2="323.5" y2="283.262" stroke="#3D5122"/>
<line x1="333.5" y1="0.957031" x2="333.5" y2="232.191" stroke="#3D5122"/>
<line x1="343.5" y1="0.957031" x2="343.5" y2="249.534" stroke="#3D5122"/>
<line x1="353.5" y1="0.957031" x2="353.5" y2="209.068" stroke="#3D5122"/>
<line x1="363.5" y1="0.957031" x2="363.5" y2="220.63" stroke="#3D5122"/>
<line x1="373.5" y1="0.957031" x2="373.5" y2="197.506" stroke="#3D5122"/>
<line x1="383.5" y1="0.957031" x2="383.5" y2="272.657" stroke="#3D5122"/>
<line x1="393.5" y1="0.957031" x2="393.5" y2="232.191" stroke="#3D5122"/>
<line x1="403.5" y1="0.957031" x2="403.5" y2="209.068" stroke="#3D5122"/>
<line x1="413.5" y1="0.957031" x2="413.5" y2="214.849" stroke="#3D5122"/>
<line x1="262.5" y1="168.817" x2="262.5" y2="0.000244141" stroke="#3D5122"/>
</svg>
