<svg width="129" height="35" viewBox="0 0 129 35" fill="none" xmlns="http://www.w3.org/2000/svg">
<path d="M12.0312 30.4375V27.125L11.9062 27C11.3021 27.6667 10.6562 28.1354 9.96875 28.4062C9.30208 28.6562 8.54167 28.8229 7.6875 28.9062L5.53125 28.5312L5.375 28.6562L5.53125 28.5312L3.84375 27.375L3.46875 27C2.80208 26.2292 2.35417 25.3333 2.125 24.3125C1.91667 23.2917 1.85417 22.2292 1.9375 21.125H2.84375C2.84375 20.5208 2.94792 19.9271 3.15625 19.3438C3.36458 18.7396 3.59375 18.1875 3.84375 17.6875L1.0625 17.5625V17.1875L4.25 17.0312L4.5 16.4062L5.78125 15C6.44792 14.5 7.16667 14.1458 7.9375 13.9375C8.70833 13.7083 9.5625 13.6354 10.5 13.7188L12.5312 14.625L12.6562 15H12.9062L13.0312 14.875L12.9062 12.1875L13.0312 9.78125L12.4062 8.125L11.125 8L10.625 8.25L10.5 8L14.5625 6.21875V17.1875H19.4062V17.5625H14.5625L14.4375 23.0312C14.5208 23.7188 14.5417 24.4062 14.5 25.0938C14.4583 25.7604 14.6042 26.3958 14.9375 27L15.7188 27.25L16.75 27L16.875 27.25C16.6042 27.5 16.2812 27.625 15.9062 27.625C15.5312 27.625 15.125 27.625 14.6875 27.625V27.875L14.9375 28.5312L15.7188 28.7812L16.75 28.5312L16.875 28.7812L13.8125 30.0625L13.9375 30.1875L13.5625 30.0625C13.2917 30.1458 13.0521 30.25 12.8438 30.375C12.6354 30.5 12.3646 30.5208 12.0312 30.4375ZM11 26.875L12.1562 25.8438L12.0312 21.125H12.9062L13.0312 18.0625L12.9062 17.5625H5.90625L5.375 21H4.5V21.5C4.58333 22.2708 4.72917 23.0417 4.9375 23.8125C5.14583 24.5625 5.51042 25.2396 6.03125 25.8438C6.53125 26.3438 7.05208 26.75 7.59375 27.0625C8.15625 27.3542 8.78125 27.5 9.46875 27.5L11 26.875ZM12.7812 17.0312C12.6146 16.5312 12.3333 16.0729 11.9375 15.6562C11.5625 15.2188 11.125 14.875 10.625 14.625L8.84375 14.5L7.1875 15.5L7.03125 15.7812H6.78125L6.15625 17.0312L6.28125 17.1875H12.6562L12.7812 17.0312ZM28.0625 29.0938C27.1458 29.0104 26.2812 28.8021 25.4688 28.4688C24.6771 28.1354 23.9792 27.5938 23.375 26.8438C22.9583 26.2604 22.6458 25.6562 22.4375 25.0312C22.2292 24.3854 22.0938 23.7292 22.0312 23.0625H23C22.8333 21.625 22.9167 20.2812 23.25 19.0312C23.6042 17.7604 24.2812 16.625 25.2812 15.625C25.9688 15.0417 26.7292 14.625 27.5625 14.375C28.3958 14.1042 29.3229 14.0104 30.3438 14.0938C30.8438 14.1979 31.3438 14.3542 31.8438 14.5625C32.3646 14.7708 32.8333 15.0417 33.25 15.375C33.5 15.625 33.625 15.9167 33.625 16.25C33.625 16.5833 33.625 16.9167 33.625 17.25H34V20.9062H33.25V19.7812H24.9062V20.9062L25.4062 22.9375L24.4062 23.0625L25.4062 25.0938L25.7812 25.3438C26.2812 25.7604 26.8229 26.1146 27.4062 26.4062C28.0104 26.6979 28.6458 26.8854 29.3125 26.9688C29.9167 26.8854 30.5104 26.7188 31.0938 26.4688C31.6771 26.1979 32.1875 25.8229 32.625 25.3438L33.75 23.5625L33.875 24.0625C33.7083 24.5625 33.5208 25.0729 33.3125 25.5938C33.1042 26.0938 32.8229 26.5938 32.4688 27.0938L30.9688 28.4688C30.4688 28.6354 29.9792 28.7604 29.5 28.8438C29.0417 28.9271 28.5625 29.0104 28.0625 29.0938ZM31.8438 19.1562V18C31.7604 17.5 31.5938 17.0417 31.3438 16.625C31.0938 16.2083 30.7604 15.8333 30.3438 15.5C30.0104 15.25 29.625 15.0833 29.1875 15C28.7708 14.9167 28.3542 14.9167 27.9375 15L26.3125 15.75V16H26.0625C25.7083 16.5 25.4479 17.0104 25.2812 17.5312C25.1146 18.0312 24.9896 18.5729 24.9062 19.1562H31.8438ZM46.1875 30.5625L42.4062 21.7812C42.0312 21.7812 41.6979 21.7604 41.4062 21.7188C41.1354 21.6562 40.9479 21.4375 40.8438 21.0625C39.5938 18 38.6354 15.9792 37.9688 15C37.6771 14.8333 37.3854 14.6979 37.0938 14.5938C36.8021 14.4896 36.5208 14.3854 36.25 14.2812V14H43.7188V14.4375H43.4375L42.875 14.2812L42.125 14.75L41.8438 15.4688H44.1562V15.875H43.8438L43.2812 15.75L42.5625 16.1562L42.125 17.1875L42.2812 17.3125L42.125 17.4688L44 21.7812L45.3125 22.0625L47.1562 26.5312L51.5 16.0312H51.0625V15.75H51.625V15C51.4375 14.7292 51.1771 14.5417 50.8438 14.4375C50.5104 14.3333 50.1458 14.2812 49.75 14.2812V14H54.8125V14.2812L53.375 15L52.9375 15.5938L56.125 15.75V16.0312L54.6562 16.75L49.9062 27.6875L48.75 27.8438V27.6875L52.9375 16.75L52.6562 16.4688L46.75 30.4062L46.1875 30.5625ZM69.9688 30.6875V30.4062C70.3229 30.4062 70.6667 30.375 71 30.3125C71.3542 30.2708 71.6875 30.1771 72 30.0312C72.3333 29.8854 72.6354 29.6771 72.9062 29.4062L73.3438 28.4062V18.6562H71.6562V17.8125H73.3438V8.28125L69.0938 8.15625C68.8021 8.23958 68.4688 8.30208 68.0938 8.34375C67.7188 8.38542 67.4062 8.53125 67.1562 8.78125C66.9271 9.01042 66.6667 9.27083 66.375 9.5625C66.2083 9.83333 66.0521 10.1146 65.9062 10.4062C65.7604 10.6979 65.6562 11.0104 65.5938 11.3438C65.5521 11.6562 65.5312 12.0104 65.5312 12.4062H65V11.2812L65.25 7H69.375V5.4375H71.0938V7H75.0625V5.4375H84.7188L84.875 9.125H84.2812L83.0312 7.4375C82.7396 7.25 82.4271 7.08333 82.0938 6.9375C81.7604 6.79167 81.4271 6.69792 81.0938 6.65625C80.7604 6.61458 80.4062 6.59375 80.0312 6.59375L76.5 6.71875V17.8125H81.5938V18.6562H76.5V24.1562L76.75 25.3125C77.0417 25.4167 77.3542 25.5417 77.6875 25.6875C78.0208 25.8125 78.3542 25.8958 78.6875 25.9375C79.0208 25.9792 79.375 26 79.75 26V26.3125H76.625V27.0312L76.9062 28.1562C77.1979 28.2396 77.5 28.3542 77.8125 28.5C78.1458 28.625 78.4792 28.7188 78.8125 28.7812C79.1458 28.8229 79.5104 28.8438 79.9062 28.8438V29.0938H74.9375V30.6875H69.9688ZM93.9688 29.875C93.2396 29.7708 92.5625 29.6458 91.9375 29.5C91.3125 29.375 90.6875 29.1354 90.0625 28.7812L89.125 28L88.7188 27.1875H88.4688L87.9062 26.4062H87V17.7188L87.9062 16.25C88.6354 15.5208 89.4167 14.9583 90.25 14.5625C91.1042 14.1458 92.0208 13.9375 93 13.9375L93.2812 14.0938L93.9688 13.9375C94.6771 14.0417 95.3646 14.25 96.0312 14.5625C96.6979 14.875 97.3438 15.25 97.9688 15.6875L98.9062 17.1562H101.875V17.7188H99.5625V18.25C99.8333 18.7708 100.031 19.3229 100.156 19.9062C100.302 20.4896 100.375 21.0938 100.375 21.7188H101.438V22.7812C101.271 23.7604 100.979 24.6979 100.562 25.5938C100.167 26.4896 99.6146 27.3438 98.9062 28.1562C98.1979 28.7604 97.4167 29.1667 96.5625 29.375C95.7083 29.6042 94.8438 29.7708 93.9688 29.875ZM96.5 28.5L97.6875 27.4688C98.1458 26.5729 98.4167 25.6354 98.5 24.6562C98.6042 23.6771 98.6562 22.6562 98.6562 21.5938H97.4375C97.4375 20.8646 97.3438 20.1875 97.1562 19.5625C96.9896 18.9375 96.7708 18.3229 96.5 17.7188H91.125V17.1562L96.0938 17.0312C95.9271 16.5938 95.6354 16.2188 95.2188 15.9062C94.8229 15.5938 94.4479 15.3021 94.0938 15.0312L92.2188 14.75C91.7604 14.8542 91.3542 15.0208 91 15.25C90.6458 15.4583 90.2917 15.7396 89.9375 16.0938C89.3958 16.9062 89.0312 17.7812 88.8438 18.7188C88.6771 19.6562 88.6354 20.6562 88.7188 21.7188H89.7812C89.8854 22.5312 90.0208 23.3333 90.1875 24.125C90.375 24.9167 90.6875 25.6771 91.125 26.4062L91 26.5312L91.25 26.6875C91.4375 27.125 91.7083 27.5 92.0625 27.8125C92.4375 28.125 92.8021 28.4062 93.1562 28.6562L95.0312 29.0625L96.5 28.5ZM104.406 29.1562V28.7812C104.74 28.7812 105.031 28.7604 105.281 28.7188C105.552 28.6771 105.823 28.5729 106.094 28.4062L106.562 27.5V17.5312L106.188 16.5312L104.781 16.25L104.281 16.4062L104.188 16.25L107.594 14.7188L107.75 12.9688L109 12.6875L109.125 15.7812C109.667 15.2396 110.229 14.6771 110.812 14.0938C111.396 13.5104 112.042 13.0833 112.75 12.8125L114.031 12.5312L114.125 12.6875L114.75 12.5312L116.031 13.0938C116.031 13.4271 116.01 13.7812 115.969 14.1562C115.948 14.5312 116.094 14.8542 116.406 15.125L116.938 15.5V15.7812H117.219L117.938 17.4375L118.5 16.7812L120.375 15.125H125.406C125.99 15.7292 126.365 16.4167 126.531 17.1875C126.698 17.9375 126.781 18.7396 126.781 19.5938L126.688 19.7188V26.125C126.75 26.5417 126.802 26.9479 126.844 27.3438C126.906 27.7396 127.062 28.0938 127.312 28.4062L127.844 28.6562V29.1562H121.938V28.9375C122.375 28.8333 122.781 28.7604 123.156 28.7188C123.552 28.6771 123.875 28.4479 124.125 28.0312L124.375 27.5V18.5938C124.271 18.1562 124.156 17.7708 124.031 17.4375C123.927 17.0833 123.688 16.7812 123.312 16.5312C123.062 16.2812 122.771 16.1354 122.438 16.0938C122.104 16.0521 121.729 16.0312 121.312 16.0312C120.625 16.1771 120.021 16.4271 119.5 16.7812C119 17.1354 118.479 17.5625 117.938 18.0625L117.844 22.0312H121.656V22.4062H117.844V26.125C117.906 26.5417 117.938 26.9896 117.938 27.4688C117.938 27.9271 118.156 28.2917 118.594 28.5625L120.281 28.7812V29.1562H116.188V27.4062H113.125V27C113.542 27 113.917 26.9792 114.25 26.9375C114.583 26.8958 114.875 26.7188 115.125 26.4062C115.417 26.1146 115.562 25.7812 115.562 25.4062C115.562 25.0312 115.562 24.625 115.562 24.1875L115.406 23.1562H116.281V22.4062H108V23.9375H109C109 24.4583 109.021 24.9583 109.062 25.4375C109.104 25.8958 109.25 26.3333 109.5 26.75L111.312 27V27.4062H107.594V29.1562H104.406ZM116.281 22.0312V19.8438H115.406V17.9375L115.562 16.9062L114.875 14.9688H114.656V14.7188C114.302 14.4688 113.906 14.3021 113.469 14.2188C113.052 14.1354 112.594 14.1458 112.094 14.25L109.656 15.5V15.7812L109 16.4062V18.6875H108V22.0312H116.281Z" fill="#F0FAE3"/>
</svg>
