<svg width="66" height="22" viewBox="0 0 66 22" fill="none" xmlns="http://www.w3.org/2000/svg">
<path d="M4.27246 20.3184V20.0986C4.54915 20.0986 4.81771 20.0742 5.07812 20.0254C5.35482 19.9928 5.61523 19.9196 5.85938 19.8057C6.11979 19.6917 6.35579 19.529 6.56738 19.3174L6.90918 18.5361V10.9189H5.59082V10.2598H6.90918V2.81348L3.58887 2.71582C3.361 2.78092 3.10059 2.82975 2.80762 2.8623C2.51465 2.89486 2.27051 3.00879 2.0752 3.2041C1.89616 3.38314 1.69271 3.58659 1.46484 3.81445C1.33464 4.02604 1.21257 4.24577 1.09863 4.47363C0.984701 4.7015 0.90332 4.94564 0.854492 5.20605C0.82194 5.4502 0.805664 5.72689 0.805664 6.03613H0.390625V5.15723L0.585938 1.8125H3.80859V0.591797H5.15137V1.8125H8.25195V0.591797H15.7959L15.918 3.47266H15.4541L14.4775 2.1543C14.2497 2.00781 14.0055 1.8776 13.7451 1.76367C13.4847 1.64974 13.2243 1.5765 12.9639 1.54395C12.7035 1.51139 12.4268 1.49512 12.1338 1.49512L9.375 1.59277V10.2598H13.3545V10.9189H9.375V15.2158L9.57031 16.1191C9.79818 16.2005 10.0423 16.2982 10.3027 16.4121C10.5632 16.5098 10.8236 16.5749 11.084 16.6074C11.3444 16.64 11.6211 16.6562 11.9141 16.6562V16.9004H9.47266V17.4619L9.69238 18.3408C9.92025 18.4059 10.1562 18.4954 10.4004 18.6094C10.6608 18.707 10.9212 18.7803 11.1816 18.8291C11.4421 18.8617 11.7269 18.8779 12.0361 18.8779V19.0732H8.1543V20.3184H4.27246ZM25.5371 18.8535L23.5107 18.5605L23.4131 18.6582L23.5107 18.5605C23.1038 18.349 22.7132 18.1618 22.3389 17.999C21.9808 17.8363 21.6309 17.6084 21.2891 17.3154C20.9473 17.0062 20.6055 16.7132 20.2637 16.4365C19.9382 15.9645 19.6208 15.4925 19.3115 15.0205C19.0023 14.5485 18.7581 14.0439 18.5791 13.5068C18.4163 12.9697 18.2699 12.4326 18.1396 11.8955H17.2119L17.1387 9.13672C17.1875 8.59961 17.2607 8.09505 17.3584 7.62305C17.4723 7.15104 17.6432 6.67904 17.8711 6.20703C18.1152 5.73503 18.3431 5.26302 18.5547 4.79102C18.8965 4.51432 19.1976 4.21322 19.458 3.8877C19.7347 3.5459 20.0602 3.24479 20.4346 2.98438C20.8089 2.70768 21.1589 2.43099 21.4844 2.1543C22.0215 1.89388 22.5586 1.69857 23.0957 1.56836C23.6491 1.42188 24.2269 1.33236 24.8291 1.2998C25.4313 1.25098 26.0417 1.22656 26.6602 1.22656C27.1973 1.30794 27.7344 1.45443 28.2715 1.66602C28.8249 1.86133 29.3294 2.11361 29.7852 2.42285C30.2572 2.71582 30.7048 3.06576 31.1279 3.47266L31.9336 4.37598V5.2793H34.1553V7.84277H31.9336V9.9668H33.7402V10.9678L33.5449 11.9688H34.4727V12.3838C34.3262 12.9209 34.1309 13.4661 33.8867 14.0195C33.6589 14.5566 33.3577 15.0612 32.9834 15.5332C32.609 15.9889 32.2184 16.4284 31.8115 16.8516C31.5511 17.112 31.2663 17.348 30.957 17.5596C30.6478 17.7549 30.3385 17.9176 30.0293 18.0479C29.7363 18.1781 29.4271 18.349 29.1016 18.5605L29.1992 18.6582L28.4668 18.5605C28.1413 18.6257 27.8239 18.6908 27.5146 18.7559C27.2217 18.821 26.9043 18.8535 26.5625 18.8535C26.2207 18.8535 25.8789 18.8535 25.5371 18.8535ZM29.5898 17.1445L29.6875 16.9492C29.9642 16.819 30.1839 16.6156 30.3467 16.3389C30.5094 16.0622 30.6803 15.8099 30.8594 15.582C31.0384 15.3379 31.193 15.0856 31.3232 14.8252L31.9336 11.9688L31.0059 11.8955C31.0059 10.8701 30.9896 9.86914 30.957 8.89258C30.9245 7.91602 30.7536 6.97201 30.4443 6.06055C30.1514 5.14909 29.7038 4.28646 29.1016 3.47266L28.8818 3.375L28.5645 3.08203L27.2705 2.1543L24.4141 1.95898C24.1536 2.02409 23.9014 2.08919 23.6572 2.1543C23.4294 2.2194 23.2096 2.3252 22.998 2.47168C22.8027 2.60189 22.5993 2.7321 22.3877 2.8623L22.29 3.08203L21.6797 3.66797H21.4844C21.1589 4.20508 20.874 4.79915 20.6299 5.4502C20.3857 6.08496 20.1986 6.72786 20.0684 7.37891C19.9382 8.01367 19.873 8.66471 19.873 9.33203H26.3428V9.64941H19.873L19.7754 10.1377L19.9707 11.8955L20.874 11.9688C20.874 12.5872 20.9717 13.2057 21.167 13.8242C21.3786 14.4264 21.6309 14.9961 21.9238 15.5332C22.2331 16.0703 22.6318 16.5667 23.1201 17.0225L23.3154 17.1445L24.4141 17.9502C24.6908 17.9502 24.9593 17.999 25.2197 18.0967C25.4964 18.1943 25.7812 18.2432 26.0742 18.2432C26.3835 18.2432 26.7171 18.2432 27.0752 18.2432L29.5898 17.1445ZM55.2734 21.2461V17.9746H51.0742V17.7549C51.3346 17.7549 51.5869 17.7467 51.8311 17.7305C52.0752 17.6979 52.3112 17.6328 52.5391 17.5352C52.7669 17.4212 52.9785 17.2666 53.1738 17.0713C53.3854 16.6644 53.4912 16.2331 53.4912 15.7773C53.4912 15.3053 53.4912 14.8333 53.4912 14.3613C53.4912 13.8893 53.4912 13.4255 53.4912 12.9697H54.1748V3.86328L54.0771 3.79004L47.1924 17.9746L45.2881 13.9463L45.166 15.2646L40.5762 5.2793L40.4785 5.37695V16.7783L42.3828 17.1689V17.3643H40.5762V18.0723L40.7959 18.7559C40.9912 18.8372 41.2028 18.9186 41.4307 19C41.6585 19.0977 41.8864 19.1628 42.1143 19.1953C42.3584 19.2279 42.6188 19.2441 42.8955 19.2441V19.4395H37.1826V19.2441C37.443 19.2441 37.6872 19.2279 37.915 19.1953C38.1592 19.1628 38.3952 19.0977 38.623 19C38.8672 18.9186 39.0869 18.7803 39.2822 18.585L39.5996 17.7549V4.7666H38.2812C38.2161 4.63639 38.1673 4.48991 38.1348 4.32715C38.1022 4.16439 38.0371 4.0179 37.9395 3.8877C37.8418 3.74121 37.7197 3.60286 37.5732 3.47266C37.443 3.34245 37.2721 3.26107 37.0605 3.22852C36.8652 3.19596 36.6699 3.16341 36.4746 3.13086C36.2793 3.09831 36.084 3.08203 35.8887 3.08203V2.88672H40.4785L41.4795 4.86426L42.7734 4.7666L45.166 10.0889L45.2881 8.77051L47.998 14.5566L54.1748 1.27539H55.1758V4.57129H58.7891V4.86426H58.2764L57.8857 4.7666L56.7871 5.37695L56.3721 6.57324V16.168H55.6641V19.1465L55.9814 20.5381C56.1768 20.6032 56.3883 20.6846 56.6162 20.7822C56.8604 20.8799 57.0964 20.945 57.3242 20.9775C57.5684 21.0264 57.8206 21.0508 58.0811 21.0508V21.2461H55.2734ZM62.3047 19.0488L60.8154 18.4873L60.4248 17.1934H61.2549L61.8652 15.8506C62.1582 15.6715 62.4512 15.5495 62.7441 15.4844C63.0371 15.4193 63.3789 15.3867 63.7695 15.3867L64.3555 15.7285V15.9971H64.6729L65.1367 17.0225L64.0625 17.3154L64.209 17.6084L63.7695 18.4873L62.3047 19.0488Z" fill="white"/>
</svg>

